<?xml version="1.0" standalone="no"?>
<!DOCTYPE svg PUBLIC "-//W3C//DTD SVG 20010904//EN"
 "http://www.w3.org/TR/2001/REC-SVG-20010904/DTD/svg10.dtd">
<svg version="1.0" xmlns="http://www.w3.org/2000/svg"
 width="1568.000000pt" height="1568.000000pt" viewBox="0 0 1568.000000 1568.000000"
 preserveAspectRatio="xMidYMid meet">
<metadata>
Created by potrace 1.14, written by Peter Selinger 2001-2017
</metadata>
<g transform="translate(0.000000,1568.000000) scale(0.100000,-0.100000)"
fill="#000000" stroke="none">
<path d="M7528 15675 c-1 -2 -37 -6 -78 -10 -155 -14 -208 -21 -330 -47 -30
-6 -59 -12 -65 -14 -56 -11 -242 -70 -310 -97 -156 -63 -510 -269 -590 -344
-11 -10 -30 -25 -42 -34 -93 -65 -339 -308 -451 -448 -82 -101 -192 -263 -192
-280 0 -6 -4 -11 -8 -11 -8 0 -103 -185 -156 -303 -28 -63 -105 -279 -111
-312 -2 -11 -18 -78 -34 -150 -17 -71 -32 -146 -35 -165 -15 -123 -28 -138
-191 -210 -217 -97 -370 -175 -455 -232 -131 -89 -304 -253 -392 -373 -4 -5
-19 -24 -32 -41 -82 -102 -228 -384 -251 -484 -2 -8 -11 -35 -20 -60 -18 -51
-55 -207 -60 -260 -3 -19 -8 -60 -12 -90 -10 -71 -10 -378 0 -450 4 -30 10
-73 13 -95 12 -98 66 -287 120 -420 50 -124 171 -342 197 -353 4 -2 7 -8 7
-14 0 -18 130 -168 220 -254 95 -90 319 -254 348 -254 6 0 12 -4 14 -8 7 -18
221 -114 339 -151 169 -54 235 -73 251 -70 7 1 20 -1 28 -4 66 -26 400 -40
555 -23 59 6 194 30 230 40 6 2 24 6 40 10 64 16 192 60 228 78 20 10 37 16
37 14 0 -5 217 111 233 125 28 24 241 157 247 154 4 -3 6 -435 1 -455 0 -3
-193 -5 -428 -6 -428 0 -504 -4 -529 -25 -8 -6 -14 -9 -14 -5 0 11 -94 -54
-124 -88 -18 -18 -40 -51 -50 -72 -11 -22 -23 -47 -27 -56 -5 -9 -6 -59 -4
-110 7 -118 7 -118 17 -118 4 0 8 -7 8 -16 0 -18 48 -90 81 -121 36 -32 120
-72 170 -79 24 -3 107 -7 184 -7 l141 -2 34 -32 34 -32 1 -465 c0 -534 8 -490
-101 -557 -100 -61 -148 -88 -174 -99 -13 -6 -27 -14 -30 -18 -5 -7 -40 -28
-111 -64 -24 -13 -48 -27 -54 -31 -5 -4 -82 -50 -170 -103 -88 -52 -161 -99
-163 -105 -2 -5 -8 -9 -13 -9 -9 0 -189 -126 -199 -139 -3 -4 -14 -14 -26 -22
-84 -58 -346 -309 -443 -425 -36 -42 -69 -81 -75 -88 -23 -23 -143 -183 -186
-246 -24 -36 -46 -67 -49 -70 -3 -3 -11 -14 -18 -25 -7 -11 -43 -72 -81 -135
-98 -162 -152 -260 -144 -260 4 0 2 -4 -4 -8 -10 -7 -124 -237 -124 -251 0 -4
-11 -29 -24 -57 -13 -27 -29 -67 -36 -89 -7 -22 -16 -44 -21 -49 -5 -6 -9 -16
-9 -24 0 -8 -6 -28 -14 -45 -8 -18 -27 -72 -41 -122 -15 -49 -33 -107 -41
-127 -8 -21 -12 -38 -9 -38 3 0 -1 -16 -9 -35 -8 -19 -13 -35 -11 -35 2 0 -2
-20 -9 -45 -8 -25 -12 -45 -10 -45 2 0 -1 -11 -6 -24 -5 -13 -12 -44 -16 -67
-3 -24 -8 -53 -10 -64 -2 -11 -6 -36 -9 -55 -3 -19 -10 -58 -16 -86 -5 -28 -9
-55 -8 -60 1 -5 0 -11 -1 -14 -1 -3 -3 -21 -5 -40 -2 -19 -4 -35 -5 -35 0 0
-3 -25 -5 -55 -2 -30 -7 -89 -10 -130 -11 -152 -7 -428 10 -610 11 -126 18
-186 21 -191 2 -3 6 -34 10 -70 3 -35 8 -67 10 -70 1 -3 6 -28 9 -55 4 -27 11
-67 17 -89 15 -57 18 -76 24 -115 2 -19 9 -49 15 -66 5 -17 12 -41 14 -54 6
-33 31 -118 72 -250 19 -63 34 -115 33 -115 -2 0 7 -20 20 -45 13 -25 22 -47
22 -50 -3 -10 91 -227 147 -340 63 -127 93 -181 123 -222 11 -16 17 -28 14
-28 -5 0 29 -56 51 -85 5 -5 26 -37 47 -70 41 -63 156 -226 166 -235 3 -3 25
-30 50 -60 114 -139 154 -184 286 -315 143 -142 236 -226 338 -305 10 -8 27
-23 38 -33 10 -9 22 -17 28 -17 5 0 13 -6 17 -13 4 -7 31 -29 58 -48 28 -18
52 -36 55 -40 3 -3 28 -21 55 -40 28 -18 52 -37 53 -41 2 -5 8 -8 13 -8 8 0
33 -16 146 -92 23 -15 44 -28 48 -28 4 0 19 -8 33 -19 15 -10 72 -42 126 -71
55 -28 106 -56 115 -61 25 -13 192 -89 197 -89 2 0 23 -9 47 -19 61 -28 218
-85 322 -116 98 -30 113 -34 120 -35 3 -1 19 -6 37 -11 18 -5 80 -20 138 -33
96 -22 127 -28 215 -42 17 -3 39 -6 50 -8 11 -2 47 -7 80 -11 33 -4 74 -9 90
-11 203 -26 827 -25 997 1 13 2 46 6 73 10 107 14 121 16 145 20 14 3 43 7 65
10 22 4 54 10 70 15 17 5 47 11 69 15 21 3 42 7 46 10 3 2 22 7 40 10 30 5 95
24 285 82 28 8 55 18 60 21 6 4 15 7 20 8 14 2 191 72 242 95 24 10 47 19 53
19 5 0 10 4 10 10 0 5 3 9 8 8 16 -4 210 93 327 164 17 10 41 23 55 30 31 15
329 215 350 234 8 8 38 31 65 51 45 34 121 96 215 177 72 63 387 385 440 450
30 38 60 74 65 80 6 6 49 63 96 126 157 212 309 471 419 715 30 66 81 187 84
200 2 6 7 21 13 35 26 65 111 328 118 367 2 10 4 18 5 18 2 0 10 34 15 60 2
11 4 21 5 23 3 3 8 23 25 102 1 3 7 30 13 60 7 30 14 66 16 80 3 14 5 25 6 25
1 0 3 16 5 35 2 19 6 49 9 65 33 208 40 308 40 600 1 221 -5 368 -19 470 -13
99 -27 199 -31 220 -3 11 -7 36 -10 55 -4 19 -7 40 -9 45 -1 6 -5 28 -10 50
-15 79 -20 98 -34 150 -6 22 -12 51 -15 65 -2 14 -5 25 -6 25 -1 0 -3 7 -5 15
-1 8 -11 42 -21 75 -10 33 -19 65 -20 70 -8 42 -129 360 -176 465 -121 267
-319 598 -474 792 -30 37 -54 69 -54 72 0 4 -8 14 -17 24 -10 10 -38 42 -63
71 -115 137 -335 356 -460 460 -126 104 -192 155 -280 217 -47 32 -86 62 -88
66 -2 5 -8 8 -12 8 -5 0 -29 14 -53 30 -25 17 -49 30 -55 30 -6 0 -12 4 -14 8
-6 14 -168 105 -353 197 -148 74 -182 95 -194 120 -12 25 -15 106 -13 494 2
507 1 499 60 523 28 11 40 11 287 5 83 -1 158 1 168 5 11 6 17 5 17 -2 0 -6 4
-9 9 -6 5 3 26 8 47 12 102 15 213 106 248 205 20 54 27 175 13 235 -31 141
-137 225 -299 239 -55 5 -722 14 -1154 17 -272 2 -303 8 -321 62 -16 47 -11
803 5 841 22 54 135 106 194 92 17 -5 51 -36 90 -85 191 -235 393 -409 583
-503 28 -13 57 -29 65 -35 40 -28 287 -106 385 -121 17 -2 41 -6 55 -9 109
-21 399 -20 511 1 11 2 40 7 63 10 33 4 126 25 171 39 6 1 30 8 55 15 25 7 51
18 58 23 6 6 12 7 12 3 0 -4 7 -2 15 5 8 7 15 10 15 6 0 -14 263 130 348 191
94 67 263 225 318 297 26 35 49 64 72 92 5 5 15 21 22 35 7 13 16 26 21 29 17
11 155 296 163 336 3 11 10 33 17 49 15 37 13 30 39 145 23 101 24 107 35 215
7 77 8 226 2 295 -7 69 -19 163 -24 185 -2 11 -6 31 -9 45 -3 14 -7 32 -9 40
-2 8 -4 15 -5 15 -1 0 -3 9 -5 20 -6 36 -42 149 -66 205 -35 83 -125 257 -140
270 -3 3 -22 30 -42 61 -20 31 -46 64 -57 74 -11 10 -20 22 -20 27 0 12 -225
238 -237 238 -4 0 -22 14 -40 30 -18 17 -35 30 -38 30 -4 0 -19 9 -33 21 -121
93 -311 179 -542 244 -6 2 -80 17 -100 20 -31 6 -95 25 -106 32 -22 16 -36 58
-40 122 -2 36 -6 82 -8 101 -3 19 -7 55 -10 80 -5 43 -9 66 -22 127 -3 16 -7
37 -9 48 -6 36 -36 147 -63 229 -14 45 -26 84 -26 88 -1 3 -4 10 -8 14 -5 4
-8 16 -8 26 0 10 -5 18 -11 18 -5 0 -8 4 -5 8 9 15 -161 348 -204 399 -5 7
-10 15 -10 18 0 4 -72 108 -97 140 -5 6 -24 30 -43 55 -19 25 -39 50 -45 56
-5 6 -26 30 -45 53 -51 62 -245 257 -317 319 -125 108 -280 216 -418 293 -95
53 -251 129 -265 129 -6 0 -19 5 -30 10 -11 6 -29 15 -40 20 -11 6 -27 10 -35
10 -8 0 -23 4 -33 9 -21 12 -97 37 -137 46 -51 12 -64 15 -85 20 -11 3 -29 7
-41 10 -11 2 -28 6 -37 9 -9 3 -35 8 -57 11 -22 4 -51 9 -65 11 -14 3 -45 7
-70 10 -25 3 -61 7 -80 10 -40 6 -506 14 -512 9z m462 -349 c25 -3 59 -7 75
-10 17 -4 44 -8 60 -11 17 -3 41 -7 55 -10 14 -3 34 -7 45 -9 64 -12 198 -52
310 -93 135 -49 442 -208 453 -235 2 -4 9 -8 15 -8 7 0 24 -10 39 -23 15 -12
49 -38 75 -57 27 -19 55 -41 65 -50 9 -8 31 -26 49 -40 44 -34 233 -224 267
-269 15 -20 37 -45 50 -57 12 -12 22 -24 22 -28 0 -3 20 -32 43 -63 51 -68 99
-146 158 -258 38 -73 107 -225 113 -250 2 -5 8 -23 15 -40 7 -16 23 -67 37
-113 13 -46 26 -87 28 -90 2 -4 7 -25 10 -47 4 -22 11 -58 17 -80 6 -22 13
-49 14 -60 2 -11 7 -36 10 -55 12 -67 17 -142 11 -166 -7 -25 -40 -52 -75 -59
-11 -3 -31 -7 -43 -10 -13 -3 -32 -7 -43 -9 -91 -17 -273 -80 -375 -129 -75
-36 -226 -122 -240 -137 -3 -3 -32 -25 -65 -49 -63 -46 -242 -223 -285 -280
-14 -19 -30 -39 -35 -45 -61 -66 -190 -305 -235 -436 -47 -136 -77 -286 -84
-412 -1 -32 -5 -61 -9 -64 -4 -4 -4 -10 -2 -15 3 -4 7 -68 10 -141 2 -73 7
-144 9 -158 3 -13 8 -42 11 -65 3 -22 8 -51 10 -65 3 -14 7 -45 10 -70 3 -25
7 -56 10 -70 18 -87 18 -98 -1 -103 -35 -10 -309 -79 -327 -83 -10 -2 -26 -5
-35 -8 -28 -8 -75 -17 -109 -21 -17 -1 -35 -5 -41 -9 -42 -26 -568 -27 -698
-2 -12 2 -38 7 -58 10 -19 3 -55 10 -78 15 -24 6 -56 12 -73 15 -36 6 -172 47
-235 71 -25 9 -49 18 -55 19 -5 1 -31 12 -57 24 -26 12 -51 22 -55 22 -25 0
-362 202 -371 223 -2 4 -10 7 -17 7 -7 0 -15 3 -17 8 -1 4 -37 35 -80 70 -86
70 -239 220 -295 290 -21 26 -46 56 -56 67 -55 60 -227 320 -227 343 0 5 -3
12 -7 14 -33 14 -193 429 -208 538 -1 14 -8 44 -14 68 -7 24 -14 62 -16 85 -2
23 -4 42 -5 42 -7 0 -21 221 -21 330 -1 113 13 302 26 371 2 16 8 49 11 74 3
25 10 52 15 61 4 9 7 18 4 20 -2 2 7 45 21 94 13 50 27 101 30 114 2 13 12 40
20 60 9 20 17 43 19 51 9 42 112 259 128 271 5 3 8 10 8 15 -2 16 134 223 184
280 6 7 24 29 40 50 50 65 253 262 334 326 42 33 83 65 91 71 8 7 51 36 95 65
44 29 87 57 96 64 10 6 20 10 24 9 4 -2 11 2 14 7 7 12 209 114 277 140 27 10
58 22 69 27 11 4 25 9 30 11 6 1 24 8 40 15 17 7 37 13 45 14 8 1 40 9 70 18
82 26 284 66 370 73 41 3 76 7 78 9 4 4 361 -4 412 -9z m-2899 -2461 c3 -51
20 -174 34 -245 17 -85 25 -128 29 -150 3 -14 15 -59 26 -100 11 -41 22 -82
25 -90 2 -8 10 -34 19 -57 8 -24 13 -43 10 -43 -3 0 -2 -6 3 -12 4 -7 8 -15 9
-18 0 -3 6 -18 13 -35 6 -16 26 -65 43 -108 34 -86 145 -309 176 -354 11 -15
37 -55 58 -88 21 -33 44 -66 51 -73 8 -8 20 -27 28 -43 9 -16 19 -29 23 -29 4
0 18 -17 32 -37 54 -80 325 -353 349 -353 5 0 11 -3 13 -7 9 -21 239 -193 257
-193 5 0 11 -3 13 -8 4 -10 120 -81 183 -112 28 -14 52 -28 55 -31 3 -3 51
-28 108 -55 56 -27 102 -53 102 -59 0 -51 -171 -231 -301 -318 -350 -231 -790
-324 -1149 -242 -14 3 -38 8 -55 10 -16 3 -52 13 -80 22 -27 10 -52 18 -55 18
-12 2 -86 28 -95 34 -5 3 -12 6 -15 6 -11 1 -127 60 -152 77 -16 11 -28 17
-28 14 0 -6 -146 93 -190 129 -25 20 -211 206 -235 235 -32 38 -117 172 -153
240 -64 124 -133 322 -147 430 -2 14 -4 25 -5 25 -12 0 -20 359 -10 417 5 23
11 63 15 88 3 25 11 61 16 80 6 19 16 58 24 85 7 28 19 64 26 80 7 17 13 33
13 36 2 9 50 114 56 119 3 3 16 29 29 58 14 28 28 52 33 52 4 0 8 7 8 15 0 8
5 15 10 15 6 0 10 6 10 13 0 13 12 29 99 136 72 87 239 247 274 260 5 2 18 11
29 20 22 19 77 52 138 82 25 13 48 27 52 33 4 6 8 8 8 4 0 -3 30 7 68 23 84
36 102 37 103 4z m5197 -95 c58 -3 217 -28 267 -43 6 -2 21 -7 35 -11 86 -26
262 -104 268 -118 2 -5 10 -8 18 -8 8 0 14 -4 14 -10 0 -5 6 -10 13 -10 41 0
347 -281 347 -319 0 -5 4 -11 9 -13 32 -12 171 -280 198 -383 7 -30 25 -103
29 -120 2 -11 7 -31 10 -45 13 -61 13 -308 -2 -395 -53 -325 -243 -642 -499
-830 -22 -17 -42 -33 -45 -36 -12 -14 -196 -117 -220 -124 -3 0 -20 -9 -37
-18 -18 -10 -34 -17 -35 -17 -2 1 -10 -1 -18 -4 -49 -16 -96 -30 -100 -31 -3
-1 -18 -4 -35 -8 -120 -29 -197 -36 -335 -32 -151 5 -174 8 -280 37 -41 11
-79 21 -85 22 -21 6 -51 18 -77 32 -14 8 -30 14 -36 14 -20 0 -179 94 -251
148 -83 61 -200 175 -246 237 -17 22 -32 42 -35 45 -14 13 -102 154 -106 170
0 3 -15 34 -31 70 -54 113 -112 323 -99 356 3 8 1 16 -4 19 -10 6 -6 283 4
325 4 14 9 41 12 60 19 115 104 329 168 425 14 22 32 49 39 59 72 112 226 264
356 350 89 59 125 78 241 128 72 31 226 68 314 74 44 4 82 7 83 8 1 1 19 1 40
0 21 -1 71 -3 111 -4z m-2783 -2373 c467 8 613 8 646 0 56 -13 64 -39 63 -186
-1 -69 -3 -228 -4 -353 -2 -271 0 -267 -100 -277 -36 -3 -250 -6 -477 -6
l-412 0 -23 22 c-22 23 -22 24 -23 380 -1 385 1 407 50 419 13 3 28 3 34 0 5
-4 12 -2 16 3 3 6 15 7 28 3 12 -5 103 -7 202 -5z m1590 -1088 c536 -1 877 -6
889 -12 11 -5 34 -23 52 -40 l34 -30 -40 -38 c-22 -22 -50 -39 -63 -39 -267
-6 -3952 2 -3969 9 -26 10 -52 37 -61 63 -9 24 30 66 71 78 18 5 164 9 324 10
161 0 293 2 294 3 2 2 934 1 2469 -4z m-2285 -429 c7 5 23 5 34 1 12 -3 35 -5
51 -4 58 6 124 5 134 -1 5 -4 12 -2 16 4 4 6 11 7 17 4 6 -4 31 -6 57 -5 25 0
69 1 96 1 51 -1 65 0 88 1 6 0 21 0 32 -1 24 -2 158 -1 188 1 6 0 23 0 37 -1
14 0 64 0 112 0 48 1 92 -1 98 -5 5 -3 10 -2 10 3 0 5 17 6 40 2 22 -4 42 -5
44 -2 3 2 296 5 652 6 673 1 691 0 712 -41 6 -11 10 -191 10 -444 1 -334 -2
-431 -12 -445 -12 -16 -16 -16 -62 -1 -40 13 -113 34 -146 43 -5 1 -9 2 -10 4
-2 1 -10 3 -18 5 -50 11 -71 16 -126 29 -34 8 -72 17 -85 20 -113 22 -190 36
-219 40 -19 3 -35 5 -35 6 0 1 -13 3 -30 5 -16 3 -46 7 -65 10 -36 5 -56 7
-225 21 -181 16 -606 9 -768 -12 -17 -2 -54 -6 -82 -9 -50 -6 -66 -8 -140 -20
-22 -3 -53 -7 -70 -10 -16 -2 -64 -11 -105 -19 -41 -9 -88 -19 -105 -22 -16
-3 -57 -12 -90 -21 -33 -8 -67 -17 -75 -18 -8 -2 -29 -8 -47 -14 -17 -5 -34
-7 -37 -3 -3 3 -6 0 -6 -7 0 -7 -4 -10 -8 -7 -5 3 -27 -2 -51 -10 -45 -15 -66
-11 -57 12 3 8 1 14 -4 14 -6 0 -9 152 -7 413 3 494 -5 465 127 474 35 2 66 6
68 8 2 2 14 0 26 -5 13 -4 29 -5 36 0z m1255 -1114 c99 -3 191 -8 205 -10 14
-2 52 -8 85 -11 87 -10 118 -14 135 -18 8 -2 38 -7 65 -11 124 -19 494 -118
580 -156 11 -4 52 -20 90 -35 108 -41 424 -189 435 -203 3 -4 18 -14 35 -22
66 -33 317 -194 385 -247 155 -121 161 -127 269 -222 81 -70 241 -230 303
-302 26 -30 61 -70 78 -89 52 -59 206 -264 213 -282 3 -10 11 -18 17 -18 5 0
10 -7 10 -15 0 -8 3 -15 8 -15 4 0 12 -9 17 -19 22 -43 80 -137 91 -149 7 -6
16 -22 20 -35 4 -12 9 -24 13 -27 3 -3 18 -27 33 -55 14 -27 42 -81 63 -119
57 -109 186 -419 206 -494 3 -13 11 -37 20 -62 20 -57 83 -308 95 -380 8 -45
12 -65 14 -65 2 0 8 -46 14 -101 2 -23 6 -55 10 -70 31 -160 37 -573 11 -819
-2 -22 -7 -65 -10 -95 -3 -30 -10 -77 -15 -105 -5 -27 -12 -67 -14 -87 -3 -21
-11 -59 -17 -85 -6 -27 -13 -59 -15 -73 -3 -14 -10 -43 -16 -65 -5 -22 -11
-47 -13 -55 -2 -8 -11 -42 -21 -75 -10 -33 -18 -62 -19 -65 -1 -9 -46 -144
-52 -160 -3 -8 -7 -19 -9 -25 -4 -19 -55 -149 -62 -160 -4 -5 -7 -15 -8 -22
-4 -24 -142 -302 -204 -409 -85 -147 -262 -410 -300 -444 -3 -3 -17 -21 -31
-40 -15 -19 -37 -46 -49 -60 -12 -14 -44 -51 -72 -83 -92 -104 -220 -229 -378
-368 -90 -79 -420 -316 -420 -301 0 4 -4 2 -8 -4 -6 -10 -35 -28 -147 -92 -33
-19 -278 -140 -350 -172 -107 -49 -427 -158 -515 -175 -8 -2 -16 -4 -17 -5 -4
-3 -5 -3 -78 -20 -33 -7 -70 -14 -81 -15 -12 -2 -30 -8 -41 -14 -11 -5 -23 -8
-25 -6 -3 3 -40 -2 -84 -10 -180 -34 -374 -49 -629 -49 -99 0 -220 4 -270 8
-85 7 -108 10 -188 20 -17 2 -57 7 -87 10 -30 4 -73 11 -95 16 -22 5 -53 11
-70 14 -16 3 -41 8 -55 11 -14 3 -36 8 -48 11 -37 7 -121 30 -187 50 -33 10
-62 18 -65 19 -48 10 -77 19 -85 24 -5 4 -30 14 -55 21 -25 7 -63 21 -85 31
-22 9 -77 31 -123 49 -217 85 -577 290 -773 440 -25 19 -58 44 -73 55 -15 11
-38 29 -50 40 -12 11 -42 36 -66 55 -143 115 -422 402 -500 514 -8 12 -19 26
-25 32 -25 27 -55 65 -55 69 0 2 -22 35 -50 72 -27 37 -53 73 -57 79 -17 22
-34 50 -50 81 -9 18 -20 33 -25 33 -4 0 -8 4 -8 9 0 5 -20 43 -44 83 -71 121
-188 365 -241 503 -15 39 -31 79 -36 90 -14 33 -86 265 -94 302 -2 10 -8 30
-13 44 -6 15 -8 29 -6 32 3 3 1 14 -4 24 -6 10 -13 34 -16 53 -3 19 -12 69
-21 110 -9 41 -18 88 -20 105 -2 16 -6 44 -9 60 -2 17 -7 57 -11 90 -3 33 -8
71 -10 85 -8 49 -17 247 -17 375 1 161 16 372 37 495 27 166 38 220 55 295 6
28 13 57 15 65 2 8 15 56 29 105 15 50 28 97 31 105 9 35 44 139 64 188 11 28
17 52 13 52 -4 0 -2 4 3 8 6 4 24 41 40 82 46 116 184 382 266 513 41 65 79
128 86 139 6 11 15 23 20 27 5 3 24 29 42 56 37 56 176 231 203 256 10 9 18
19 18 23 0 7 261 268 325 326 124 111 429 340 454 340 5 0 11 4 13 8 3 9 194
123 253 152 17 8 32 17 35 20 6 6 169 85 179 86 3 0 38 15 76 33 68 32 350
135 396 146 13 3 74 19 134 35 61 17 121 33 135 35 14 2 36 7 50 10 43 9 188
34 235 41 96 13 192 22 330 30 61 3 111 7 113 9 2 1 11 1 20 -1 9 -1 98 -5
197 -8z"/>
</g>
</svg>
