<svg width="80" height="80" viewBox="0 0 80 80" fill="none" xmlns="http://www.w3.org/2000/svg">
<path fill-rule="evenodd" clip-rule="evenodd" d="M27.224 1.91401C-15.508 17.754 -5.35499 79.392 40 79.48C82.665 79.562 95.581 22.293 57.074 3.77201C48.452 -0.374987 35.562 -1.17699 27.224 1.91401ZM55.5 5.35801C92.617 22.3 80.757 77.5 40 77.5C-3.81499 77.5 -12.349 17.224 29.5 3.34401C36.089 1.15801 48.387 2.11101 55.5 5.35801ZM38.531 20.859C38.185 22.432 35.889 27.252 33.428 31.571C23.799 48.468 26.532 60.5 40 60.5C53.101 60.5 56.362 47.502 47.004 32.582C44.906 29.237 42.625 24.587 41.936 22.25C40.475 17.294 39.41 16.859 38.531 20.859ZM45.121 33.278C52.176 45.83 52.34 51.012 45.857 56.467C38.504 62.654 27.242 54.269 29.585 44.351C30.278 41.414 39.108 25.056 40 25.056C40.275 25.056 42.579 28.756 45.121 33.278ZM45 47.927C45 48.988 43.875 50.74 42.5 51.821C39.669 54.048 39.348 55 41.427 55C42.213 55 43.788 53.814 44.927 52.365C47.101 49.602 47.708 46 46 46C45.45 46 45 46.867 45 47.927Z" fill="black"/>
</svg>
