<svg width="80" height="80" viewBox="0 0 80 80" fill="none" xmlns="http://www.w3.org/2000/svg">
<path fill-rule="evenodd" clip-rule="evenodd" d="M27.224 1.91401C-15.508 17.754 -5.35501 79.392 40 79.48C82.665 79.562 95.581 22.293 57.074 3.77201C48.452 -0.374987 35.562 -1.17699 27.224 1.91401ZM55.5 5.35801C92.617 22.3 80.757 77.5 40 77.5C-3.81501 77.5 -12.349 17.224 29.5 3.34401C36.089 1.15801 48.387 2.11101 55.5 5.35801ZM37.302 22.25C36.177 23.488 33.961 26.492 32.378 28.927C30.092 32.444 29.429 32.958 29.153 31.427C28.432 27.423 26.726 27.411 27.333 31.414C28.086 36.373 28.663 36.845 33.25 36.26C37.561 35.71 38.232 34.283 34.399 33.816L31.799 33.5L35.149 28.5C39.382 22.184 41.945 21.626 44.545 26.454C46.402 29.902 48 31.063 48 28.965C48 27.559 44.987 22.787 43.129 21.25C40.967 19.462 39.629 19.691 37.302 22.25ZM50.594 37.141C48.705 43.155 49.457 46.774 51.598 41.974C52.405 40.165 52.859 40.545 55.838 45.526C59.969 52.433 59.543 54 53.531 54C51.039 54 49 54.45 49 55C49 55.55 51.16 56 53.8 56C61.37 56 62.883 52.958 58.658 46.23C53.77 38.447 53.746 38.313 57.312 38.799C61.823 39.413 59.565 37.351 54.761 36.469C52.018 35.965 50.907 36.144 50.594 37.141ZM21.711 45.861C16.646 53.514 18.57 56 29.557 56C35.436 56 36.092 56.184 34.98 57.524C32.632 60.353 34.996 60.378 37.942 57.555L40.864 54.756L38.038 52.378C34.598 49.484 33.009 49.247 35.5 52C37.295 53.984 37.247 54 29.624 54C20.657 54 19.613 52.981 22.985 47.524C26.111 42.467 24.955 40.959 21.711 45.861Z" fill="black"/>
</svg>
