<svg id="Layer_1" data-name="Layer 1" xmlns="http://www.w3.org/2000/svg" viewBox="0 0 413.82 784.03"><defs><style>.cls-1{fill:#39b54a;}</style></defs><path class="cls-1" d="M407.5,530.15a201.9,201.9,0,0,0-113.84-135.7C290.29,393,289,391,289,387.23c.28-13.51.45-27,.15-40.51-.11-5.38,1.95-7,6.89-6.88,6.74.23,13.52.53,20.24.16,9.64-.53,16-7.71,15.89-17.32-.11-11.12-5.95-16.91-18.11-17.12-21.44-.36-42.89-.62-64.33-.62-5.23-.05-7.5-1.33-7.29-7.05.37-11.1.32-22.24,0-33.36-.14-5,1.47-7.27,6.31-9,5.13-1.84,6.61,1.09,8.93,4.09,20.57,26.48,47.83,37.69,80.7,33,40.73-5.83,72-42,70.45-85-.79-21.45-8.17-39.68-22.68-55.37-13.1-14.13-29.32-22.14-48-25.46-3.72-.66-4.88-2.18-5.07-5.76A119.26,119.26,0,0,0,308,53.42C274.6,10.21,229.93-6.16,176.5,2.05c-26,4-47.93,16.86-66.88,35.16C87.94,58.14,75.36,83.56,70.94,113.14c-.55,3.69-1.89,5.08-5.26,6.63-10.22,4.7-21.13,8.82-29.9,15.6C-9.6,170.48-9.76,236.15,23.68,272.93c28.48,31.3,78.57,40.85,116,19.3,5.46-3.12,10.55-6.76,16.46-10.58v23.61H114.48c-9.27,0-17.25,7.35-17.54,15.93-.37,10.64,6,18.21,16.29,18.89,4.34.29,8.77-.37,13.07.16,1.61.2,4.25,2.52,4.25,3.92.31,15,.28,30.15,0,45.15,0,1.44-1.7,3.35-3.12,4.2-12.56,7.54-25.61,14.31-37.78,22.41-22.84,15.26-40.58,35.57-54.58,59C6.89,522.26-.57,573.26,11.38,626.86c11.12,50,38.58,89.46,79.83,119.4,31.79,23.07,67.33,35.79,106.73,37.51,24.37,1.06,48.34-.9,71.76-8.08,36-11,66.18-31,91.62-58.7A195.06,195.06,0,0,0,404,643.42C415.87,606.08,416.9,568.29,407.5,530.15ZM325.15,145.36c35.35-.27,64.93,28.58,65.17,63.72s-29,64.6-63.76,65.42c-35.83.85-65.19-28.62-66.19-62.78C259.31,176.11,289.41,144.07,325.15,145.36Zm-241,139.27C46.57,278.91,20.3,248.94,18.57,213c-1.75-36.18,23.89-66.16,50.75-73.81q8.16,82.45,83.43,116.16C145.67,271.55,113.05,289,84.13,284.63Zm28.71-79.51c-16.71-20.15-25.76-43.78-26-70.55-.37-40.1,15.63-72.33,47.72-95.54,41.21-29.74,95.67-29.27,136,1.26,26.82,20.28,41.33,47.43,45.82,80.37.52,3.84-.74,5.55-4.87,6.35-18.32,3.56-34.32,11.49-47.32,25.49C248,169.86,240.78,190.39,242,213.86c.44,8,2.1,16,3.44,25.63-10.56,2.35-21.56,6.17-32.86,7C172.56,249.6,138.6,236.12,112.84,205.12ZM173.62,269c0-3.87,1.31-5.24,5.31-5,6.72.39,13.48.1,20.23.1v-.28c6.94,0,13.89.06,20.83,0,3.92-.05,5.84,1.4,5.72,5.61q-.36,15.16-.36,30.35c0,3.67-1,5.34-5,5.34-13.89-.08-27.79.11-41.68.29-3.42,0-5.05-1.18-5-4.86C173.75,290,173.73,279.49,173.62,269Zm-54.19,57.57a12.74,12.74,0,0,1-5.23-.67c-1.19-.55-2.57-2.26-2.55-3.4s1.5-2.72,2.71-3.25a13.74,13.74,0,0,1,5.25-.67c20.06-.13,40.12-.29,60.17-.29q65.16.18,130.32.42c1.39,0,3-.26,4.1.35,1.55.84,2.69,2.39,4,3.64-1.31,1.25-2.44,2.89-4,3.65-1.3.63-3.11.29-4.7.29H214.78Q167.08,326.64,119.43,326.54Zm23.1,20.14c-.05-4.7,1.36-6.7,6.47-6.7,40.49.06,81-.09,121.49-.23,3.52,0,6.29.18,6.29,4.84V385.1c0,.5-.5,1-1.08,2.1-43.78-14.14-87.81-13.94-132.51-.61a31.92,31.92,0,0,1-.78-4.76C142.42,370.12,142.65,358.4,142.53,346.68ZM203,765.26c-95.29-3.32-177.28-81-178.2-185,.73-104.6,86.84-186.69,190-184.83,98,1.81,180.82,85.86,180.22,185.56C394.35,684.26,309.12,769,203,765.26Z" transform="translate(0.01 0)"/><path class="cls-1" d="M201.66,8.83" transform="translate(0.01 0)"/></svg>