<svg width="1024" height="1024" viewBox="0 0 1024 1024" fill="none" xmlns="http://www.w3.org/2000/svg">
<g clip-path="url(#clip0_1_2)">
<path d="M447.486 401.8V371.806C439.973 376.659 433.503 381.283 426.562 385.247C378.981 412.624 315.306 400.491 279.102 360.728C236.593 314.003 236.796 230.576 294.484 185.973C305.632 177.36 319.501 172.126 332.493 166.155C336.777 164.186 338.48 162.42 339.179 157.732C344.798 120.154 360.79 87.8606 388.35 61.2713C412.439 38.0231 440.329 21.6732 473.368 16.6043C541.289 6.17439 598.073 26.9707 640.468 81.8643C659.742 106.51 670.91 136.513 672.439 167.756C672.681 172.304 674.155 174.235 678.884 175.073C702.63 179.291 723.249 189.467 739.902 207.417C758.347 227.35 767.729 250.509 768.733 277.759C770.729 332.386 730.953 378.336 679.176 385.742C637.392 391.7 602.739 377.459 576.59 343.819C573.641 340.008 571.759 336.286 565.238 338.623C559.086 340.821 557.039 343.705 557.217 350.057C557.624 364.184 557.687 378.336 557.217 392.437C556.95 399.704 559.836 401.33 566.484 401.393C593.739 401.393 621.006 401.724 648.261 402.181C663.719 402.448 671.142 409.803 671.282 423.93C671.371 436.139 663.337 445.26 651.083 445.933C642.54 446.403 633.922 446.022 625.354 445.73C619.074 445.527 616.455 447.636 616.595 454.47C616.976 471.621 616.76 488.771 616.404 505.934C616.315 510.723 618.019 513.201 622.303 515.106C657.95 530.958 689.511 554.723 714.588 584.595C739.664 614.467 757.595 649.66 767.017 687.498C778.966 735.951 777.657 783.959 762.504 831.396C751.54 866.154 733.036 898.067 708.312 924.858C675.973 960.023 637.621 985.405 591.844 999.43C562.073 1008.55 531.602 1011.04 500.623 1009.7C450.537 1007.51 405.358 991.351 364.947 962.043C312.51 924.007 277.602 873.877 263.466 810.358C248.275 742.265 257.759 677.475 293.645 617.334C311.442 587.569 333.993 561.768 363.027 542.381C378.498 532.091 395.087 523.491 411.053 513.912C412.859 512.832 414.994 510.406 415.02 508.576C415.312 489.52 415.35 470.337 414.956 451.218C414.956 449.44 411.6 446.492 409.553 446.238C404.087 445.565 398.456 446.403 392.939 446.035C379.896 445.171 371.76 435.554 372.231 422.037C372.599 411.137 382.744 401.851 394.528 401.8C411.931 401.8 429.321 401.8 447.486 401.8ZM280.501 751.158C281.67 883.278 385.896 981.962 507.03 986.18C641.956 990.893 750.3 883.278 751.101 752.085C751.864 625.427 646.532 518.651 522.004 516.351C390.892 513.988 281.429 618.275 280.501 751.158ZM561.018 318.246C559.314 305.974 557.204 295.875 556.645 285.686C555.081 255.87 564.272 229.789 584.84 207.735C601.366 189.949 621.705 179.875 644.994 175.352C650.244 174.336 651.845 172.164 651.184 167.285C645.477 125.439 627.032 90.9476 592.938 65.1841C541.67 26.399 472.44 25.802 420.054 63.5834C379.261 93.0692 358.921 134.014 359.392 184.957C359.697 218.965 371.201 248.984 392.443 274.583C425.189 313.965 468.359 331.09 519.246 327.19C533.611 326.084 547.594 321.232 561.018 318.246ZM662.333 198.664C616.9 197.025 578.637 237.729 579.984 282.967C581.255 326.364 618.578 363.802 664.125 362.723C708.351 361.681 745.483 324.255 745.177 279.614C744.872 234.972 707.27 198.321 662.333 198.664V198.664ZM337.12 190.839C302.975 200.557 270.382 238.643 272.606 284.606C274.806 330.251 308.2 368.325 355.947 375.592C392.71 381.194 434.177 358.975 443.177 338.407C379.388 309.866 344.035 260.676 337.12 190.839V190.839ZM599.472 505.896C600.209 504.498 600.845 503.863 600.845 503.228C600.845 486.078 600.845 468.927 600.845 451.764C600.845 445.844 597.323 445.59 592.849 445.616C541.378 445.793 489.881 445.984 438.41 445.908C431.914 445.908 430.122 448.449 430.185 454.419C430.338 469.308 430.045 484.197 430.033 499.074C430.206 501.112 430.538 503.134 431.024 505.121C487.847 488.186 543.818 487.932 599.472 505.896V505.896ZM502.174 349.117V349.472C493.593 349.472 485 349.841 476.457 349.345C471.372 349.04 469.656 350.781 469.707 355.697C469.847 369.062 469.872 382.376 469.707 395.791C469.643 400.466 471.715 402.016 476.063 401.965C493.72 401.736 511.39 401.495 529.047 401.597C534.132 401.597 535.492 399.475 535.467 394.813C535.467 381.956 535.619 369.104 535.924 356.256C536.077 350.908 533.636 349.066 528.653 349.129C519.831 349.193 510.996 349.117 502.174 349.117ZM522.03 428.923H642.439C644.46 428.923 646.761 429.355 648.413 428.554C650.396 427.589 651.833 425.505 653.498 423.917C651.833 422.329 650.384 420.36 648.413 419.293C647.015 418.518 644.968 418.849 643.201 418.849C587.98 418.645 532.759 418.467 477.538 418.315C452.05 418.315 426.549 418.518 401.049 418.683C398.79 418.529 396.523 418.818 394.375 419.534C392.837 420.208 390.956 422.215 390.93 423.663C390.905 425.112 392.659 427.284 394.172 427.983C396.304 428.726 398.569 429.016 400.82 428.834C441.202 428.918 481.605 428.948 522.03 428.923Z" fill="#39B54A"/>
<path d="M280.501 751.158C281.479 618.249 390.943 513.963 522.03 516.364C646.608 518.663 751.889 625.44 751.127 752.098C750.339 883.24 641.994 990.931 507.055 986.193C385.845 981.988 281.619 883.278 280.501 751.158Z" fill="white"/>
<path d="M561.018 318.246C547.594 321.232 533.611 326.084 519.335 327.139C468.487 331.039 425.266 313.901 392.532 274.532C371.239 248.934 359.735 218.914 359.481 184.906C359.01 133.963 379.35 93.0184 420.143 63.5326C472.453 25.7638 541.67 26.399 592.938 65.146C627.006 90.9095 645.477 125.401 651.184 167.247C651.845 172.126 650.244 174.298 644.994 175.314C621.654 179.837 601.34 189.975 584.84 207.697C564.247 229.814 555.081 255.832 556.645 285.648C557.179 295.875 559.314 305.974 561.018 318.246Z" fill="white"/>
<path d="M662.333 198.664C707.27 198.321 744.847 235.036 745.177 279.614C745.508 324.192 708.313 361.681 664.125 362.723C618.578 363.802 581.281 326.364 579.984 282.967C578.637 237.729 616.9 197.025 662.333 198.664Z" fill="white"/>
<path d="M337.12 190.839C344.069 260.786 379.422 309.976 443.177 338.407C434.177 358.975 392.71 381.194 355.947 375.592C308.162 368.325 274.806 330.251 272.606 284.606C270.331 238.643 302.975 200.557 337.12 190.839Z" fill="white"/>
<path d="M599.472 505.896C543.818 487.932 487.847 488.237 431.075 505.121C430.589 503.134 430.257 501.112 430.083 499.074C430.083 484.197 430.389 469.309 430.236 454.42C430.172 448.449 431.965 445.895 438.461 445.908C489.945 445.984 541.428 445.794 592.9 445.616C597.374 445.616 600.934 445.844 600.895 451.764C600.781 468.915 600.895 486.065 600.895 503.228C600.845 503.863 600.209 504.498 599.472 505.896Z" fill="white"/>
<path d="M502.174 349.117C510.996 349.117 519.831 349.193 528.653 349.117C533.636 349.053 536.077 350.895 535.924 356.244C535.585 369.092 535.433 381.944 535.467 394.8C535.467 399.462 534.195 401.609 529.047 401.584C511.39 401.482 493.72 401.724 476.063 401.952C471.703 401.952 469.631 400.453 469.707 395.778C469.885 382.414 469.86 369.1 469.707 355.685C469.707 350.819 471.334 349.079 476.457 349.333C485 349.828 493.593 349.46 502.174 349.46V349.117Z" fill="white"/>
<path d="M522.03 428.923C481.631 428.923 441.236 428.923 400.846 428.923C398.594 429.105 396.33 428.815 394.197 428.072C392.685 427.373 390.918 425.226 390.956 423.752C390.994 422.279 392.862 420.297 394.401 419.623C396.548 418.907 398.816 418.617 401.074 418.772C426.575 418.607 452.075 418.378 477.563 418.404C532.793 418.463 588.022 418.603 643.252 418.823C645.019 418.823 647.066 418.493 648.464 419.268C650.396 420.335 651.845 422.304 653.549 423.892C651.871 425.48 650.434 427.563 648.464 428.529C646.811 429.329 644.511 428.897 642.489 428.897H522.03V428.923Z" fill="white"/>
</g>
<defs>
<clipPath id="clip0_1_2">
<rect width="526" height="996" fill="white" transform="translate(249 14)"/>
</clipPath>
</defs>
</svg>
