<svg width="80" height="80" viewBox="0 0 80 80" fill="none" xmlns="http://www.w3.org/2000/svg">
<path fill-rule="evenodd" clip-rule="evenodd" d="M27.224 1.914C-15.508 17.754 -5.35499 79.392 40 79.48C82.665 79.562 95.581 22.293 57.074 3.772C48.452 -0.375003 35.562 -1.177 27.224 1.914ZM55.5 5.358C92.617 22.3 80.757 77.5 40 77.5C-3.81499 77.5 -12.349 17.224 29.5 3.344C36.089 1.158 48.387 2.111 55.5 5.358ZM20.471 26.424C18.296 46.732 25.448 61.964 36.5 60.562C39.25 60.214 42.4 60.005 43.5 60.098C51.864 60.808 54.633 59.545 57.697 53.62C59.816 49.522 61.213 38.493 60.459 31.809C59.722 25.273 59.715 25.272 50.183 30.892L44.883 34.017L38.691 29.628C33.346 25.839 22.989 20 21.613 20C21.363 20 20.85 22.891 20.471 26.424ZM39.857 32.982C49.61 40.691 51.835 48.549 45.849 54.141L42.698 57.085L39.833 54.34C36.839 51.471 34.567 45.291 35.558 42.708C35.876 41.88 35.669 40.913 35.097 40.56C31.286 38.205 33.942 51.827 38.012 55.511C42.609 59.671 33.986 60.542 29.079 56.413C24.395 52.472 21.032 37.64 22.54 27.579L23.215 23.08L28.909 25.954C32.041 27.535 36.968 30.698 39.857 32.982ZM58.181 42.558C56.696 53.67 52.206 60.152 47.113 58.536C45.044 57.879 45.068 57.778 47.993 54.853C51.669 51.177 52.052 45.432 49 39.739C46.427 34.937 46.187 35.505 52.25 32.04L57.5 29.04L58.323 32.19C58.778 33.932 58.714 38.568 58.181 42.558Z" fill="black"/>
</svg>
