<svg id="Layer_1" data-name="Layer 1" xmlns="http://www.w3.org/2000/svg" viewBox="0 0 413.78 784.01"><defs><style>.cls-1{fill:#39b54a;}.cls-2{fill:#fff;}</style></defs><path class="cls-1" d="M449.36,413V389.39c-5.91,3.82-11,7.46-16.46,10.58-37.43,21.55-87.52,12-116-19.3C283.46,343.89,283.62,278.22,329,243.11c8.77-6.78,19.68-10.9,29.9-15.6,3.37-1.55,4.71-2.94,5.26-6.63,4.42-29.58,17-55,38.68-75.93,18.95-18.3,40.89-31.17,66.88-35.16,53.43-8.21,98.1,8.16,131.45,51.37a119.25,119.25,0,0,1,25.15,67.61c.19,3.58,1.35,5.1,5.07,5.76,18.68,3.32,34.9,11.33,48,25.46,14.51,15.69,21.89,33.92,22.68,55.37,1.57,43-29.72,79.17-70.45,85-32.87,4.69-60.13-6.52-80.7-33-2.32-3-3.8-5.93-8.93-4.09-4.84,1.73-6.45,4-6.31,9,.32,11.12.37,22.26,0,33.36-.21,5.72,2.06,7,7.29,7.05,21.44,0,42.89.26,64.33.62,12.16.21,18,6,18.11,17.12.07,9.61-6.25,16.79-15.89,17.32-6.72.37-13.5.07-20.24-.16-4.94-.16-7,1.5-6.89,6.88.3,13.5.13,27-.15,40.51-.07,3.77,1.27,5.72,4.64,7.22a201.89,201.89,0,0,1,113.84,135.7c9.4,38.14,8.37,75.93-3.55,113.27a195,195,0,0,1-42.63,73.57c-25.44,27.68-55.61,47.66-91.62,58.7-23.42,7.18-47.39,9.14-71.76,8.08-39.4-1.72-74.94-14.44-106.73-37.51-41.25-29.94-68.71-69.4-79.83-119.4C292.65,681,300.11,630,328.34,582.66c14-23.43,31.74-43.74,54.58-59,12.17-8.1,25.22-14.87,37.78-22.41,1.42-.85,3.1-2.76,3.12-4.2.23-15,.26-30.1-.05-45.15,0-1.4-2.64-3.72-4.25-3.92-4.3-.53-8.73.13-13.07-.16-10.26-.68-16.66-8.25-16.29-18.89.29-8.58,8.27-15.89,17.54-15.93C421.39,413,435.07,413,449.36,413ZM318,688c.92,104,82.91,181.68,178.2,185,106.14,3.71,191.37-81,192-184.27.6-99.7-82.26-183.75-180.22-185.56C404.84,501.31,318.73,583.4,318,688ZM538.67,347.23c-1.34-9.66-3-17.61-3.44-25.63-1.23-23.47,6-44,22.18-61.36,13-14,29-21.93,47.32-25.49,4.13-.8,5.39-2.51,4.87-6.35-4.49-32.94-19-60.09-45.82-80.37-40.33-30.53-94.79-31-136-1.26-32.09,23.21-48.09,55.44-47.72,95.54.24,26.77,9.29,50.4,26,70.55,25.76,31,59.72,44.48,99.75,41.41C517.11,353.4,528.11,349.58,538.67,347.23Zm79.7-94.13c-35.74-1.29-65.84,30.75-64.78,66.36,1,34.16,30.36,63.63,66.19,62.78,34.79-.82,64-30.28,63.76-65.42S653.72,252.83,618.37,253.1Zm-255.83-6.16c-26.86,7.65-52.5,37.63-50.75,73.81,1.73,35.93,28,65.9,65.56,71.62,28.92,4.41,61.54-13.08,68.62-29.27Q370.7,329.4,362.54,246.94Zm206.38,248c.58-1.1,1.08-1.6,1.08-2.1,0-13.5,0-27,0-40.51,0-4.66-2.77-4.86-6.29-4.84-40.49.14-81,.29-121.49.23-5.11,0-6.52,2-6.47,6.7.12,11.72-.11,23.44-.12,35.15a31.17,31.17,0,0,0,.78,4.76C481.11,481,525.14,480.8,568.92,494.94ZM492.38,371.53v.28c-6.75,0-13.51.29-20.23-.1-4-.24-5.35,1.13-5.31,5,.11,10.52.13,21,0,31.56-.05,3.68,1.58,4.9,5,4.86,13.89-.18,27.79-.37,41.68-.29,4,0,5.07-1.67,5.05-5.34q0-15.18.36-30.35c.12-4.21-1.8-5.66-5.72-5.61C506.27,371.59,499.32,371.53,492.38,371.53ZM508,434.35v0h94.72c1.59,0,3.4.34,4.7-.29,1.56-.76,2.69-2.4,4-3.65-1.31-1.25-2.45-2.8-4-3.64-1.1-.61-2.71-.35-4.1-.35Q538.16,426.18,473,426c-20.05,0-40.11.16-60.17.29a13.63,13.63,0,0,0-5.25.67c-1.21.53-2.69,2.11-2.71,3.25s1.36,2.85,2.55,3.4a12.75,12.75,0,0,0,5.23.67Q460.3,434.38,508,434.35Z" transform="translate(-293.22 -107.74)"/><path class="cls-2" d="M318,688c.77-104.62,86.88-186.71,190-184.82,98,1.81,180.82,85.86,180.22,185.56-.62,103.23-85.85,188-192,184.27C400.87,869.7,318.88,792,318,688Z" transform="translate(-293.22 -107.74)"/><path class="cls-2" d="M538.67,347.23c-10.56,2.35-21.56,6.17-32.79,7-40,3.07-74-10.42-99.75-41.41-16.75-20.15-25.8-43.78-26-70.55-.37-40.1,15.63-72.33,47.72-95.54C469,117,523.45,117.5,563.78,148c26.8,20.28,41.33,47.43,45.82,80.37.52,3.84-.74,5.55-4.87,6.35-18.36,3.56-34.34,11.54-47.32,25.49-16.2,17.41-23.41,37.89-22.18,61.36C535.65,329.62,537.33,337.57,538.67,347.23Z" transform="translate(-293.22 -107.74)"/><path class="cls-2" d="M618.37,253.1c35.35-.27,64.91,28.63,65.17,63.72s-29,64.6-63.76,65.42c-35.83.85-65.17-28.62-66.19-62.78C552.53,283.85,582.63,251.81,618.37,253.1Z" transform="translate(-293.22 -107.74)"/><path class="cls-2" d="M362.54,246.94q8.2,82.59,83.43,116.16c-7.08,16.19-39.7,33.68-68.62,29.27-37.59-5.72-63.83-35.69-65.56-71.62C310,284.57,335.68,254.59,362.54,246.94Z" transform="translate(-293.22 -107.74)"/><path class="cls-2" d="M568.92,494.94c-43.78-14.14-87.81-13.9-132.47-.61a31.17,31.17,0,0,1-.78-4.76c0-11.71.24-23.43.12-35.15-.05-4.7,1.36-6.71,6.47-6.7,40.5.06,81-.09,121.49-.23,3.52,0,6.32.18,6.29,4.84-.09,13.5,0,27,0,40.51C570,493.34,569.5,493.84,568.92,494.94Z" transform="translate(-293.22 -107.74)"/><path class="cls-2" d="M492.38,371.53c6.94,0,13.89.06,20.83,0,3.92-.05,5.84,1.4,5.72,5.61q-.4,15.17-.36,30.35c0,3.67-1,5.36-5.05,5.34-13.89-.08-27.79.11-41.68.29-3.43,0-5.06-1.18-5-4.86.14-10.52.12-21,0-31.56,0-3.83,1.28-5.2,5.31-5,6.72.39,13.48.1,20.23.1Z" transform="translate(-293.22 -107.74)"/><path class="cls-2" d="M508,434.35q-47.67,0-95.33,0a12.75,12.75,0,0,1-5.23-.67c-1.19-.55-2.58-2.24-2.55-3.4s1.5-2.72,2.71-3.25a13.63,13.63,0,0,1,5.25-.67c20.06-.13,40.12-.31,60.17-.29q65.17.07,130.34.33c1.39,0,3-.26,4.1.35,1.52.84,2.66,2.39,4,3.64-1.32,1.25-2.45,2.89-4,3.65-1.3.63-3.11.29-4.7.29H508Z" transform="translate(-293.22 -107.74)"/></svg>